<?xml version="1.0" ?><svg height="256" viewBox="0 0 256 256" width="256" xmlns="http://www.w3.org/2000/svg"><title/><g id="sleep-rest-night"><g><path d="M228,108H196.91a57.986,57.986,0,0,1-22.12-4.39,129.108,129.108,0,0,0-21.35-6.74,29.621,29.621,0,0,0,3.83-9.33c1.52-.25,3.04-.53,4.54-.82a8.692,8.692,0,0,0,1.83,2.64,8.994,8.994,0,0,0,12.72-12.72,7.421,7.421,0,0,0-1.1-.93,75.109,75.109,0,0,0,2.26-11.48,2.009,2.009,0,0,0-1.76-2.22,2.32,2.32,0,0,0-.59.02,2.008,2.008,0,0,0-1.63,1.74,72.1,72.1,0,0,1-2.53,12.25c-.01.01-.01.03-.02.05a1.265,1.265,0,0,0-.06.28,1.773,1.773,0,0,0-.02.32,1.426,1.426,0,0,0,.03.29,1.515,1.515,0,0,0,.15.5.887.887,0,0,0,.08.17,1.273,1.273,0,0,0,.13.19,1.2,1.2,0,0,0,.21.24,1.29,1.29,0,0,0,.21.19c.01.01.03.02.04.03.06.04.13.08.2.12a.61.61,0,0,0,.14.07h.01a4.772,4.772,0,0,1,1.43.99,5.006,5.006,0,1,1-8.43,4.58v-.02a1.986,1.986,0,0,0-.7-1.16c-.05-.04-.1-.08-.16-.12a1.968,1.968,0,0,0-1.49-.29h-.01c-1.6.33-3.22.64-4.85.92.07-.78.1-1.57.1-2.37V72.33c.89-2.63,5.83-18.73-1.51-30.24-4.13-6.47-11.3-10.2-21.31-11.08-26.75-2.36-32.83,13.65-33.94,17.75a18.544,18.544,0,0,0-7.48,10.75c-1.22,5.31.22,11.06,4.24,17.1V81c0,.8.03,1.59.1,2.37-1.91-.33-3.86-.71-5.8-1.12a.22.22,0,0,0-.08-.01,1.839,1.839,0,0,0-.33-.03,1.894,1.894,0,0,0-.67.12,1.351,1.351,0,0,0-.3.14,1.139,1.139,0,0,0-.23.15,1.422,1.422,0,0,0-.29.26.913.913,0,0,0-.15.21.545.545,0,0,0-.11.17.959.959,0,0,0-.13.27,2.756,2.756,0,0,0-.08.27.22.22,0,0,0-.01.08v.02a5,5,0,1,1-8.46-4.44,4.826,4.826,0,0,1,2.08-1.24h.01a1.982,1.982,0,0,0,.7-.38.738.738,0,0,0,.13-.12,2.01,2.01,0,0,0,.52-1.99c0-.01-.01-.02-.01-.03a68.989,68.989,0,0,1,0-39.4c0-.01.01-.02.01-.03a2.01,2.01,0,0,0-.52-1.99.743.743,0,0,0-.13-.12,1.984,1.984,0,0,0-.7-.38h-.01a4.825,4.825,0,0,1-2.08-1.24A5.006,5.006,0,1,1,89.9,28c.01.04.01.08.02.12a.248.248,0,0,0,.01.08,2.755,2.755,0,0,0,.08.27.959.959,0,0,0,.13.27,1.858,1.858,0,0,0,.78.79,1.348,1.348,0,0,0,.3.14,1.892,1.892,0,0,0,.67.12,1.845,1.845,0,0,0,.33-.03c.02,0,.03-.01.05-.01h.03a172.549,172.549,0,0,1,70.45-.2h.01a1.968,1.968,0,0,0,1.49-.29,2.015,2.015,0,0,0,.86-1.28v-.02a5,5,0,1,1,8.43,4.58,4.814,4.814,0,0,1-1.44.99,2,2,0,0,0,.81,3.83,2.1,2.1,0,0,0,.81-.17,8.692,8.692,0,0,0,2.64-1.83,9,9,0,0,0-12.73-12.72,8.66,8.66,0,0,0-1.82,2.64,176.59,176.59,0,0,0-68.53.18,8.829,8.829,0,0,0-1.92-2.82A9,9,0,1,0,80.59,36.83a72.712,72.712,0,0,0,0,38.34,8.685,8.685,0,0,0-1.95,1.47A8.994,8.994,0,1,0,91.36,89.36a8.83,8.83,0,0,0,1.92-2.82q2.745.555,5.45,1a29.621,29.621,0,0,0,3.83,9.33,129.106,129.106,0,0,0-21.35,6.74A57.987,57.987,0,0,1,59.09,108H28a12.01,12.01,0,0,0-12,12V238a2.006,2.006,0,0,0,2,2H238a2.006,2.006,0,0,0,2-2V120A12.01,12.01,0,0,0,228,108ZM86,213.92a73.661,73.661,0,0,1-20,4.76V191.69a77.346,77.346,0,0,0,20-4.49Zm104-86.23v28.99a73.66,73.66,0,0,1-20-4.76V123.19A76.863,76.863,0,0,0,190,127.69ZM36,161H59.09q1.455,0,2.91-.06v27q-1.455.06-2.91.06H36Zm104-17.25a96.375,96.375,0,0,0-24,0V114.78a92.7,92.7,0,0,1,24,0Zm4,4.63a107.745,107.745,0,0,1,22,6.26v26.7a110.389,110.389,0,0,0-22-6.02Zm50,12.56q1.455.06,2.91.06H220v27H196.91q-1.455,0-2.91-.06ZM86,151.92a73.661,73.661,0,0,1-20,4.76V127.69a77.346,77.346,0,0,0,20-4.49Zm4,29.42v-26.7a107.745,107.745,0,0,1,22-6.26v26.94A110.389,110.389,0,0,0,90,181.34ZM128,205a97.14,97.14,0,0,0-12,.75V178.78a92.7,92.7,0,0,1,24,0v26.97A97.14,97.14,0,0,0,128,205Zm42,8.92V187.19a76.863,76.863,0,0,0,20,4.5v26.99A73.66,73.66,0,0,1,170,213.92ZM102.39,85.45v-.03A24.8,24.8,0,0,1,102,81V72a26.426,26.426,0,0,1,2.24-7.96c3.89.18,15.86,1.02,24.99,4.81A63.106,63.106,0,0,0,154,73.98V81a25.619,25.619,0,0,1-.38,4.4c0,.02-.01.03-.01.05v.02a26.029,26.029,0,0,1-4.39,10.54,115.56,115.56,0,0,0-42.44,0A26.054,26.054,0,0,1,102.39,85.45ZM36,223H59.09q1.455,0,2.91-.06V236H36Zm54-6.36a107.745,107.745,0,0,1,22-6.26V236H90Zm54-6.26a107.745,107.745,0,0,1,22,6.26V236H144Zm50,12.56q1.455.06,2.91.06H220v13H194Z"/><path d="M202,20h4.14l-3.02,8.32a2,2,0,0,0,.38,2A1.976,1.976,0,0,0,205,31a2.1,2.1,0,0,0,.43-.05l9-2a2,2,0,0,0-.86-3.9l-5.44,1.21,2.75-7.58A1.995,1.995,0,0,0,209,16h-7a2,2,0,0,0,0,4Z"/><path d="M187.05,39.46a2.017,2.017,0,0,0,1.32,1.44l9,3a1.975,1.975,0,0,0,.63.1,2,2,0,0,0,.63-3.9l-5.93-1.97,6.71-6.72a1.989,1.989,0,0,0,.48-2.07,2.01,2.01,0,0,0-1.67-1.33l-9-1a2,2,0,1,0-.44,3.98l4.86.54-6.05,6.06A1.991,1.991,0,0,0,187.05,39.46Z"/><path d="M168,39a2,2,0,0,0,0,4h10.68l-7.45,14.06A2,2,0,0,0,173,60a2.036,2.036,0,0,0,.83-.18l.28-.13,10.72-4.87a2,2,0,1,0-1.66-3.64l-5.66,2.57,6.26-11.81A2.008,2.008,0,0,0,182,39H168Z"/><path d="M135.51,83.94a21.971,21.971,0,0,0,5.27.74c4.8,0,5.91-2.43,6.12-3.05a2,2,0,0,0-3.7-1.49c-.19.16-1.6,1.2-6.71-.08a2,2,0,0,0-.98,3.88Z"/><path d="M119.51,80.06c-5.12,1.28-6.52.24-6.71.08a2,2,0,0,0-3.7,1.49c.21.62,1.32,3.05,6.12,3.05a21.971,21.971,0,0,0,5.27-.74,2,2,0,0,0-.98-3.88Z"/></g></g></svg>